<?xml version="1.0" standalone="no"?>
<!DOCTYPE svg PUBLIC "-//W3C//DTD SVG 20010904//EN" "http://www.w3.org/TR/2001/REC-SVG-20010904/DTD/svg10.dtd">
<svg version="1.0" xmlns="http://www.w3.org/2000/svg" width="1306.000000pt" height="394.000000pt" viewBox="0 0 1306.000000 394.000000" preserveAspectRatio="xMidYMid meet">
<g transform="translate(0.000000,394.000000) scale(0.100000,-0.100000)" fill="#000000" stroke="none">
<path d="M5790 3922 c0 -4 -15 -13 -33 -20 -41 -15 -50 -15 -41 -1 4 8 -1 9
-17 3 -24 -8 -52 -12 -96 -13 -14 -1 -20 -6 -17 -14 5 -13 -53 -53 -63 -43 -3
3 -14 1 -24 -5 -20 -10 -15 -39 7 -39 8 0 14 -4 14 -10 0 -5 -9 -10 -20 -10
-11 0 -20 5 -20 10 0 6 -13 10 -29 10 -17 0 -31 6 -35 15 -4 12 0 14 22 9 26
-5 26 -5 7 11 -19 16 -19 16 10 10 21 -5 26 -4 16 3 -9 7 -1 10 30 10 29 1 48
7 56 18 18 24 11 27 -25 8 -18 -8 -36 -12 -42 -9 -6 4 -17 2 -25 -5 -7 -6 -27
-12 -43 -12 -23 -1 -29 -5 -24 -16 4 -11 1 -13 -9 -7 -11 6 -12 5 -1 -6 16
-18 15 -29 -3 -29 -9 0 -15 -9 -15 -21 0 -19 -1 -20 -17 -3 -13 13 -14 19 -5
22 17 5 15 22 -3 22 -8 0 -15 -4 -15 -10 0 -5 -7 -10 -15 -10 -8 0 -15 5 -15
10 0 11 -33 14 -43 3 -4 -3 1 -11 9 -18 14 -10 12 -12 -14 -12 -17 0 -29 4
-26 9 7 11 -49 -14 -57 -26 -4 -5 -12 -5 -18 -2 -6 4 -11 2 -11 -4 0 -6 -4 -8
-10 -5 -5 3 -10 1 -10 -4 0 -6 -9 -11 -21 -11 -12 0 -23 -8 -26 -20 -3 -11
-14 -20 -25 -20 -12 0 -17 4 -12 12 4 7 3 8 -5 4 -6 -4 -8 -12 -5 -18 4 -6 -2
-8 -17 -4 -21 6 -22 5 -6 -4 10 -7 25 -9 33 -6 8 3 14 1 14 -5 0 -6 -9 -13
-20 -16 -11 -3 -20 -9 -20 -14 0 -5 -7 -9 -15 -9 -8 0 -15 -4 -15 -10 0 -10
-50 -8 -69 4 -6 4 -28 -6 -48 -23 -21 -17 -46 -31 -56 -31 -10 0 -16 -4 -12
-9 3 -5 -3 -12 -12 -14 -10 -2 -5 -3 11 -1 16 2 34 11 41 21 9 11 14 13 19 4
9 -14 -81 -101 -104 -101 -6 0 -10 -4 -10 -10 0 -5 -7 -10 -16 -10 -11 0 -14
-6 -9 -20 5 -15 2 -20 -12 -19 -11 0 -13 3 -5 6 9 4 7 10 -7 22 -12 10 -18 21
-14 25 3 3 1 6 -5 6 -7 0 -12 -4 -12 -10 0 -5 -7 -10 -16 -10 -10 0 -14 -6
-11 -14 3 -8 -1 -13 -11 -12 -9 0 -17 -6 -18 -14 -3 -40 -4 -42 -29 -38 -29 6
-52 -15 -57 -52 -2 -16 -10 -26 -23 -28 -18 -2 -18 -2 -2 8 9 6 17 16 17 23 0
6 -18 -6 -40 -28 -28 -28 -37 -42 -29 -51 15 -18 -18 -49 -37 -33 -12 10 -13
8 -8 -7 4 -10 3 -16 -1 -11 -13 11 -44 -23 -38 -41 4 -10 2 -13 -5 -8 -7 4
-12 3 -12 -2 0 -18 13 -21 28 -6 12 13 13 17 3 24 -9 5 -10 10 -2 14 6 4 11 2
11 -5 0 -7 6 -5 13 5 8 11 20 16 28 13 11 -4 11 -6 -2 -6 -9 -1 -21 -12 -27
-26 -14 -30 -15 -38 -4 -31 4 2 9 -5 9 -16 2 -15 -1 -18 -9 -10 -8 8 -17 8
-30 1 -11 -6 -22 -8 -25 -5 -4 3 -13 0 -22 -7 -14 -11 -14 -10 -2 6 8 10 9 17
3 17 -6 0 -16 -17 -23 -37 -6 -21 -18 -44 -26 -51 -20 -20 -16 -32 12 -32 16
0 25 6 25 16 0 8 5 12 11 8 8 -4 7 0 -1 15 -6 12 -9 27 -6 34 2 7 5 5 5 -5 1
-11 7 -15 21 -11 11 3 20 3 20 0 0 -14 -24 -57 -32 -57 -4 0 -8 -9 -8 -20 0
-11 -7 -20 -15 -20 -8 0 -15 6 -15 13 0 9 -3 8 -9 -2 -7 -11 -9 -11 -13 0 -2
7 -10 9 -16 5 -8 -4 -10 -23 -7 -49 3 -28 2 -34 -3 -18 -7 23 -8 23 -19 -13
-9 -30 -9 -37 1 -33 9 4 11 -2 8 -19 -2 -14 0 -24 7 -24 6 0 11 -9 11 -20 0
-11 -3 -20 -6 -20 -11 0 -34 29 -34 44 0 9 -4 16 -10 16 -5 0 -10 11 -10 25 0
23 -2 24 -20 15 -11 -6 -20 -19 -20 -29 0 -10 -10 -33 -23 -52 -34 -50 -41
-67 -18 -40 20 22 21 22 21 3 0 -13 -11 -26 -27 -34 -22 -11 -28 -20 -26 -43
2 -20 -1 -25 -6 -17 -11 18 -33 -42 -24 -65 5 -12 3 -14 -7 -8 -9 5 -11 4 -6
-4 10 -15 -3 -53 -15 -46 -5 4 -9 -10 -9 -29 0 -20 -4 -36 -8 -36 -5 0 -8 -19
-8 -42 1 -30 -3 -42 -12 -40 -6 1 -11 -1 -11 -5 4 -26 -2 -73 -10 -69 -4 3 -8
-14 -8 -37 0 -31 2 -37 8 -22 6 16 8 16 8 3 1 -9 -2 -24 -5 -33 -5 -13 -8 -14
-15 -3 -6 9 -9 2 -9 -19 0 -22 5 -33 14 -33 12 0 26 -20 26 -36 0 -2 -11 -4
-25 -4 -25 0 -25 -1 -26 -82 -2 -145 3 -233 12 -236 12 -5 11 -42 -1 -42 -5 0
-10 -9 -10 -20 0 -11 4 -20 9 -20 5 0 7 -9 4 -20 -3 -11 -1 -20 5 -20 5 0 13
-15 17 -32 6 -29 8 -31 15 -13 5 11 9 36 10 55 1 30 3 32 11 15 9 -18 9 -18 5
3 -5 27 2 52 15 52 5 0 9 -27 9 -60 0 -54 -2 -60 -21 -60 -19 0 -20 -4 -14
-37 4 -21 7 -52 6 -70 -1 -17 5 -38 14 -46 8 -9 15 -23 15 -31 0 -9 5 -16 11
-16 8 0 10 -14 6 -40 -4 -29 -1 -40 8 -40 16 0 25 -33 14 -51 -8 -13 -13 -5
-10 14 1 5 -3 6 -9 2 -5 -3 -11 4 -12 17 -1 13 -2 30 -4 38 -1 8 -2 26 -3 39
-1 15 -6 21 -14 18 -10 -4 -13 2 -9 19 2 14 0 24 -7 24 -12 0 -9 -49 5 -71 5
-8 10 -25 12 -37 1 -13 12 -40 22 -60 11 -19 17 -39 14 -44 -3 -4 -1 -8 4 -8
5 0 14 10 20 22 10 23 11 23 11 -4 1 -16 -3 -28 -9 -28 -5 0 -10 -7 -10 -15 0
-8 5 -15 11 -15 6 0 9 -9 6 -20 -3 -13 3 -29 17 -43 12 -12 20 -30 18 -39 -2
-11 3 -18 13 -18 9 0 15 -6 14 -12 -1 -7 -1 -22 0 -33 1 -17 3 -18 11 -5 6 10
10 11 10 3 0 -7 5 -13 10 -13 6 0 10 9 10 20 0 13 7 20 20 20 16 0 20 7 20 30
0 17 5 30 10 30 16 0 12 -90 -5 -107 -25 -25 -12 -38 33 -34 27 1 42 -2 42 -9
0 -8 -12 -11 -35 -8 -21 2 -34 0 -33 -7 1 -5 -2 -20 -6 -33 -9 -26 28 -87 46
-75 7 4 9 1 6 -8 -6 -17 26 -62 36 -51 4 3 4 -1 0 -11 -4 -11 -1 -17 9 -17 9
0 19 -9 22 -20 3 -11 11 -20 16 -20 6 0 7 4 4 10 -4 6 1 7 12 4 10 -3 6 3 -9
12 -16 10 -28 27 -28 36 0 10 -4 19 -10 19 -5 1 -14 2 -19 3 -6 0 -16 8 -23
16 -11 12 -11 12 5 1 18 -14 20 -10 18 26 -3 28 16 39 24 13 4 -14 15 -20 36
-20 22 0 29 -5 29 -20 0 -11 -4 -20 -10 -20 -5 0 -10 5 -10 10 0 6 -10 10 -22
10 l-21 0 20 -23 c20 -21 43 -60 43 -71 0 -3 -6 -6 -14 -6 -8 0 -18 -5 -21
-10 -4 -6 -3 -10 2 -9 22 4 33 -3 33 -21 0 -13 7 -20 20 -20 11 0 20 -5 20
-11 0 -5 -5 -7 -12 -3 -6 4 -3 -5 8 -19 21 -29 29 -32 39 -17 4 6 3 10 -2 9
-21 -4 -21 3 -3 21 11 11 25 20 30 20 17 0 60 -47 60 -65 0 -22 -18 -18 -25 6
-4 11 -9 18 -12 16 -2 -3 0 -14 5 -24 7 -12 7 -25 1 -34 -8 -13 -13 -6 -10 14
1 5 -3 6 -8 2 -11 -6 -3 -35 9 -35 5 0 15 6 23 14 12 13 14 10 15 -16 1 -37 2
-38 40 -41 16 -1 28 -5 26 -9 -2 -4 1 -10 7 -13 5 -4 8 -13 5 -21 -3 -8 0 -14
7 -14 7 0 18 -9 25 -20 7 -11 21 -20 32 -20 11 0 19 -6 17 -12 -1 -8 6 -12 17
-10 11 2 15 -1 11 -7 -3 -7 2 -11 14 -11 11 0 23 -4 26 -10 4 -6 -1 -7 -12 -3
-12 4 -10 0 7 -14 23 -20 50 -21 50 -2 0 5 7 9 15 9 8 0 15 9 15 20 0 11 5 20
10 20 22 0 8 -37 -21 -54 -23 -13 -28 -21 -18 -27 16 -9 50 7 46 23 -1 7 6 14
16 16 30 6 18 -26 -18 -46 -18 -10 -17 -11 13 -12 29 0 37 -8 33 -33 -1 -4 8
-3 19 3 11 6 20 15 20 20 0 6 5 10 10 10 6 0 10 -7 10 -16 0 -10 6 -14 15 -10
19 7 45 -3 45 -17 0 -7 -4 -7 -12 1 -15 15 -32 16 -22 1 5 -8 1 -8 -14 0 -26
14 -29 14 -29 -3 0 -8 6 -12 12 -9 7 2 20 -4 30 -13 14 -15 18 -15 26 -3 5 9
9 10 9 2 0 -6 -6 -15 -12 -20 -8 -5 2 -10 27 -13 22 -3 39 -10 38 -16 -1 -7
19 -20 45 -29 26 -10 53 -23 61 -29 11 -8 15 -8 18 2 3 6 13 12 24 12 10 0 19
5 19 10 0 6 7 10 15 10 8 0 15 5 15 10 0 6 16 10 35 10 19 0 35 -4 35 -10 0
-5 9 -10 20 -10 11 0 20 -4 20 -10 0 -5 -7 -10 -15 -10 -8 0 -15 -4 -15 -10 0
-5 10 -10 23 -10 40 0 47 -15 6 -16 -37 -1 -39 0 -39 27 0 22 -5 29 -20 29
-11 0 -20 -4 -20 -10 0 -5 -9 -10 -21 -10 -23 0 -54 -26 -40 -34 5 -3 23 -1
40 5 38 13 54 3 27 -17 -11 -8 -15 -14 -9 -14 7 0 15 5 18 10 3 6 11 10 16 10
6 0 7 -5 4 -10 -8 -13 43 -33 67 -27 10 3 22 -1 26 -9 6 -10 27 -15 68 -16 43
0 54 -3 39 -9 -16 -7 -14 -8 10 -5 16 2 42 -2 57 -10 17 -9 28 -10 28 -4 0 5
-7 10 -17 10 -9 0 -13 3 -9 7 10 10 126 11 126 1 0 -4 -15 -8 -32 -8 -18 0
-40 -5 -48 -11 -11 -8 -3 -9 31 -5 26 3 50 1 56 -5 8 -8 26 -8 63 0 28 6 63
10 78 10 l27 -1 -30 -8 c-26 -7 -24 -8 15 -6 l45 1 3 103 c2 68 0 102 -7 102
-7 0 -11 -34 -11 -96 0 -84 -2 -95 -16 -90 -9 3 -22 6 -30 6 -11 0 -14 19 -14
90 0 53 4 90 10 90 6 0 10 -33 10 -80 0 -50 4 -80 11 -80 7 0 9 32 7 94 -2 52
0 92 5 89 4 -2 7 1 7 8 0 8 -13 10 -43 6 -43 -6 -79 5 -63 20 5 4 11 2 13 -4
6 -17 34 -17 30 0 -1 6 -9 15 -17 19 -23 10 -80 9 -80 -2 0 -17 -139 -12 -156
5 -22 22 -64 30 -85 16 -10 -6 -32 -11 -49 -11 -16 0 -30 -4 -30 -10 0 -5 -20
-10 -45 -10 -38 0 -45 3 -45 20 0 14 7 20 24 20 13 0 26 -5 28 -11 2 -7 13 -9
27 -4 18 5 20 9 10 15 -7 5 5 6 29 3 35 -5 42 -3 42 11 0 16 -8 17 -65 11 -45
-5 -65 -4 -65 4 0 6 11 11 25 11 14 0 25 5 25 10 0 6 -13 10 -29 10 -16 0 -31
5 -33 12 -3 7 -9 8 -19 2 -28 -18 -72 -12 -98 12 -21 20 -23 24 -8 24 9 0 17
-4 17 -9 0 -15 31 -22 48 -11 13 8 14 10 2 8 -8 -1 -25 4 -38 11 -13 7 -28 10
-35 8 -7 -2 -24 5 -40 15 -24 17 -28 18 -33 4 -8 -21 -41 -20 -61 0 -9 8 -25
13 -35 10 -11 -2 -17 -2 -14 1 3 4 -1 14 -9 23 -19 21 -10 51 13 44 9 -3 5 2
-10 10 -21 13 -32 13 -59 4 -25 -9 -34 -8 -37 0 -2 7 -10 12 -18 12 -8 0 -14
5 -14 10 0 6 9 10 19 10 24 0 36 16 20 26 -8 5 -10 2 -5 -7 4 -8 -2 -2 -14 14
-14 17 -31 27 -48 27 -21 0 -24 2 -12 10 13 9 13 10 0 10 -8 0 -22 -5 -30 -10
-13 -9 -13 -11 0 -20 11 -7 8 -10 -17 -10 -38 0 -50 15 -31 38 28 32 33 46 14
39 -13 -5 -17 -3 -13 7 7 19 -43 63 -53 46 -5 -8 -9 -8 -13 4 -3 8 -3 16 1 18
4 2 -10 19 -32 38 -22 19 -37 30 -33 24 4 -7 1 -14 -7 -17 -25 -10 -53 4 -67
31 -23 45 -23 48 -1 29 12 -11 26 -16 33 -11 7 4 10 3 6 -4 -8 -12 2 -42 14
-42 5 0 7 10 5 23 -3 12 -5 26 -5 30 -1 4 -8 7 -17 5 -10 -2 -18 5 -20 15 -3
25 -23 47 -41 47 -9 0 -13 6 -10 15 4 8 2 17 -2 19 -17 11 -19 -7 -5 -39 17
-41 17 -45 4 -45 -5 0 -10 10 -10 23 0 14 -11 28 -32 40 -31 18 -33 18 -45 1
-7 -10 -16 -14 -20 -10 -4 4 -2 11 6 15 7 4 14 20 15 35 3 23 0 26 -30 26 -27
0 -34 4 -34 20 0 22 16 27 23 8 2 -8 8 -9 13 -4 5 5 4 11 -3 13 -7 3 -13 13
-13 23 0 10 -4 22 -10 25 -5 3 -10 -1 -10 -9 0 -9 -4 -16 -9 -16 -5 0 -8 12
-8 26 0 18 2 22 8 13 6 -10 9 -3 9 20 0 19 -3 31 -6 28 -11 -10 -65 55 -59 70
3 8 5 19 5 24 0 6 5 7 10 4 6 -3 10 -19 10 -36 0 -16 5 -29 10 -29 15 0 12 56
-4 69 -8 7 -17 24 -21 38 -5 22 -8 24 -16 12 -8 -10 -9 -7 -6 13 2 16 0 28 -4
28 -5 0 -8 3 -8 8 5 24 -16 71 -32 75 -12 3 -19 14 -19 29 -1 21 -2 22 -14 5
-13 -16 -14 -16 -20 -1 -4 9 -4 19 -1 22 3 3 5 2 5 -2 0 -4 10 -2 21 5 12 6
19 7 16 2 -2 -4 -1 -17 4 -28 6 -16 7 -13 4 10 -2 17 -4 37 -4 45 -1 13 -2 13
-12 0 -8 -11 -9 -6 -4 20 5 26 4 31 -4 20 -6 -8 -11 -24 -12 -35 l0 -20 -8 20
c-5 11 -4 22 0 23 5 2 9 29 8 60 0 41 -3 51 -9 37 -6 -13 -9 12 -9 73 -1 54
-5 92 -11 92 -5 0 -10 18 -10 40 0 23 -5 40 -11 40 -12 0 -8 114 5 170 5 21 5
22 -3 5 -8 -19 -9 -19 -14 5 -3 17 -3 15 -2 -6 2 -17 -1 -37 -6 -45 -6 -9 -9
4 -10 41 l-2 55 -7 -50 -7 -50 -1 57 -2 57 40 -2 40 -3 2 56 c0 30 0 63 0 73
-1 10 3 15 8 12 6 -3 10 0 10 9 0 8 -6 17 -12 19 -10 4 -10 7 0 15 7 5 15 15
16 23 2 8 5 21 8 29 8 23 26 82 33 110 5 19 4 22 -4 10 -9 -13 -11 -13 -11 3
0 9 4 17 9 17 10 0 25 48 22 68 -1 6 3 12 9 12 5 0 10 -5 10 -12 0 -6 2 -9 5
-7 2 3 2 15 -2 28 -4 17 -8 19 -14 9 -12 -19 -10 31 2 57 9 19 9 19 6 -1 -3
-12 1 -31 8 -44 12 -23 12 -23 23 9 8 23 8 30 0 25 -6 -4 -9 -1 -6 7 3 8 11
14 19 14 14 0 28 58 23 101 -3 29 12 32 19 4 3 -11 2 -18 -1 -16 -4 2 -8 -7
-8 -21 -2 -29 -2 -29 26 26 12 23 16 40 9 36 -8 -5 -10 -4 -5 3 8 13 -10 52
-24 52 -5 0 -6 -7 -3 -17 4 -11 3 -14 -5 -9 -15 9 -16 46 -2 46 6 0 10 7 10
16 0 39 61 57 99 30 10 -8 20 -2 40 24 14 19 44 55 66 79 27 30 33 40 18 32
-12 -6 -26 -19 -31 -28 -6 -9 -19 -17 -30 -18 -20 -2 -23 10 -9 33 5 7 4 12
-2 12 -6 0 -11 5 -11 11 0 5 5 7 12 3 6 -4 17 1 24 10 7 10 15 13 18 7 4 -5 2
-12 -4 -16 -19 -12 -11 -26 10 -15 12 6 17 17 14 28 -4 10 -3 13 3 6 4 -6 15
-11 24 -11 13 0 16 10 15 41 -1 37 1 40 31 48 29 8 38 26 20 44 -11 11 -8 36
3 29 6 -3 10 -2 10 3 0 5 7 9 15 9 8 0 15 -6 15 -13 0 -8 -6 -11 -15 -8 -8 4
-15 1 -15 -5 0 -19 38 -12 45 9 3 11 14 20 23 20 12 0 13 -3 4 -12 -7 -7 -12
-16 -12 -20 0 -14 27 -8 41 9 12 14 12 16 0 8 -10 -5 -12 -4 -7 4 4 6 11 9 16
6 4 -3 19 4 31 16 13 11 18 18 12 14 -7 -3 -13 -1 -13 4 0 6 6 12 13 12 37 4
72 20 59 28 -5 3 -12 16 -16 27 -5 16 -2 23 14 27 12 3 18 11 15 19 -4 11 6
15 42 16 l48 3 -28 -19 c-15 -10 -24 -22 -20 -26 5 -5 -2 -5 -14 -2 -12 4 -24
2 -28 -4 -3 -5 2 -10 12 -11 16 0 16 -1 -2 -9 -14 -6 -16 -9 -4 -9 8 -1 28 13
44 29 16 17 37 30 47 30 12 0 16 4 12 12 -5 8 -2 9 9 5 10 -3 17 -2 17 4 0 22
32 41 68 41 20 0 32 3 25 5 -14 5 32 53 52 53 22 0 18 -18 -6 -25 -11 -4 -19
-9 -16 -11 6 -7 99 35 120 53 21 20 23 40 2 23 -16 -14 -31 -8 -21 8 3 6 30 8
58 6 75 -6 131 0 153 16 6 4 33 11 60 15 40 6 46 9 30 16 -13 5 0 7 35 4 l55
-5 -54 14 c-57 14 -95 11 -69 -5 8 -6 -1 -7 -22 -3 -27 4 -32 3 -20 -6 13 -9
12 -11 -4 -8 -11 2 -21 13 -23 26 -3 23 -2 24 59 19 35 -3 71 -8 81 -12 13 -5
17 -2 17 14 0 17 6 21 30 21 17 0 30 -4 30 -8 0 -26 109 -43 140 -22 11 8 8 9
-12 4 -22 -5 -28 -3 -28 10 0 11 -9 16 -30 16 -16 0 -30 5 -30 10 0 6 14 10
30 10 17 0 30 -4 30 -10 0 -6 33 -10 79 -10 44 0 81 -4 83 -10 2 -5 59 -10
128 -11 112 -2 164 -10 224 -34 13 -6 17 -5 12 3 -12 20 37 24 69 7 30 -17 30
-17 3 -11 -14 3 -34 8 -45 11 -10 3 0 -3 22 -14 45 -22 65 -25 65 -11 0 6 7
10 15 10 8 0 15 -4 15 -10 0 -5 12 -10 28 -11 24 0 25 -1 7 -9 -15 -6 -7 -9
30 -9 36 -1 46 -4 35 -11 -17 -11 87 -12 105 -1 16 9 65 10 59 0 -3 -5 6 -9
20 -9 14 0 26 5 26 10 0 17 57 12 64 -6 9 -24 7 -31 -4 -14 -6 10 -10 11 -10
3 0 -7 -7 -13 -15 -13 -8 0 -15 -4 -15 -10 0 -14 -38 -12 -43 3 -2 6 -8 9 -12
5 -12 -12 39 -55 73 -62 20 -3 31 -2 27 4 -3 5 6 12 20 16 14 3 25 10 25 15 0
5 7 9 15 9 8 0 15 -7 15 -16 0 -8 -4 -12 -10 -9 -5 3 -10 1 -10 -5 0 -7 -7
-10 -15 -6 -8 3 -14 0 -12 -7 1 -8 -10 -12 -33 -11 l-35 2 30 -14 c37 -16 65
-18 65 -3 0 5 -4 7 -10 4 -5 -3 -10 -4 -10 -1 0 3 8 10 18 15 16 8 18 6 18
-19 0 -21 -4 -27 -15 -23 -9 3 13 -12 48 -33 42 -24 66 -33 69 -26 2 7 8 10
13 6 5 -3 9 0 9 5 0 6 -10 12 -22 13 -13 0 -27 2 -33 3 -5 2 -16 3 -22 4 -24
2 -13 21 12 21 14 0 25 -4 25 -10 0 -5 10 -10 21 -10 20 0 59 -34 59 -51 0 -4
-7 -12 -16 -17 -15 -8 -15 -10 0 -15 9 -4 15 -2 13 5 -1 6 4 13 11 15 7 3 11
0 10 -5 -2 -6 6 -18 17 -27 17 -14 17 -16 3 -11 -26 8 -23 4 31 -37 48 -37 71
-46 71 -27 0 6 -9 10 -20 10 -11 0 -20 4 -20 9 0 5 11 9 25 9 13 0 22 -4 19
-9 -3 -5 -1 -9 5 -9 6 0 9 -14 7 -30 -4 -36 8 -48 24 -23 10 16 11 16 7 -4 -3
-13 0 -21 6 -20 6 1 11 -3 12 -10 0 -17 66 -77 74 -66 8 11 22 10 40 -1 10 -6
16 -5 19 2 4 14 62 17 62 4 0 -34 -69 -67 -85 -42 -4 6 -10 8 -15 5 -13 -8 26
-45 42 -41 7 1 10 1 6 -1 -5 -3 -8 -9 -8 -14 0 -6 5 -7 12 -3 8 5 9 2 5 -9 -3
-9 -1 -19 6 -23 7 -4 9 -4 5 1 -4 4 0 14 8 22 8 8 12 18 9 23 -3 4 6 3 20 -3
29 -14 35 -51 8 -45 -12 2 -17 11 -15 23 2 11 1 17 -3 14 -14 -15 -13 -68 1
-80 9 -7 24 -30 35 -50 10 -21 24 -41 30 -45 8 -4 8 -1 1 12 -7 14 -7 24 2 36
11 15 13 11 11 -28 0 -26 4 -52 11 -59 7 -7 10 -16 6 -21 -4 -5 2 -2 12 6 11
8 17 10 13 3 -8 -13 20 -93 33 -93 4 0 11 -16 14 -35 5 -23 11 -33 18 -29 7 5
9 2 6 -8 -4 -8 0 -15 7 -15 10 0 12 9 8 31 -3 17 -10 33 -15 34 -4 2 -8 10 -8
19 0 8 -7 21 -15 29 -8 8 -11 22 -8 32 6 15 5 15 -11 3 -16 -13 -16 -12 -5 12
16 35 28 34 36 -3 3 -16 9 -30 14 -30 5 0 9 -9 9 -20 0 -11 5 -20 10 -20 6 0
10 14 10 30 0 17 5 30 10 30 14 0 13 -97 -1 -102 -9 -3 -9 -10 1 -27 7 -15 8
-21 1 -17 -7 5 -11 -4 -10 -26 0 -27 2 -29 9 -13 5 13 8 -4 8 -50 -1 -53 5
-81 20 -110 12 -22 21 -36 22 -32 0 4 -7 22 -16 38 -8 17 -13 33 -10 36 3 4
13 -10 21 -30 16 -39 20 -107 6 -107 -11 0 -2 -51 12 -68 9 -11 13 -11 19 5 5
11 7 -3 5 -36 -1 -36 2 -56 11 -58 7 -3 12 4 12 16 0 12 5 21 10 21 6 0 10 -9
10 -20 0 -11 -4 -20 -10 -20 -5 0 -10 -18 -10 -39 0 -22 -4 -41 -9 -43 -5 -2
-12 -20 -16 -40 -6 -31 -4 -38 9 -38 9 0 16 8 16 20 0 11 5 20 10 20 6 0 10
-9 10 -20 0 -19 7 -20 99 -20 70 0 101 4 104 13 4 8 6 7 7 -3 1 -8 10 14 21
50 10 36 17 49 14 30 -3 -19 -1 -48 5 -65 7 -23 9 -9 8 60 -2 105 -7 137 -19
129 -5 -3 -9 7 -9 21 0 15 -4 24 -10 20 -5 -3 -10 4 -10 16 0 19 2 20 17 8 15
-13 16 -11 10 11 -4 14 -7 29 -7 34 0 4 -7 6 -15 2 -10 -3 -15 1 -15 13 0 11
6 21 13 24 9 3 9 9 -1 27 -11 18 -11 21 0 15 10 -6 11 -5 1 6 -7 7 -13 27 -14
44 0 16 -4 39 -8 50 -8 19 -8 19 -15 -3 -4 -13 -10 -22 -12 -19 -3 2 0 16 6
31 7 20 7 25 -1 20 -9 -5 -10 1 -5 20 6 24 5 26 -13 14 -15 -9 -17 -15 -9 -25
7 -8 7 -13 0 -13 -17 0 -22 29 -6 38 11 6 12 15 6 31 -4 12 -11 22 -15 22 -22
-3 -27 1 -27 19 0 11 -4 20 -10 20 -5 0 -10 -18 -10 -40 0 -22 5 -40 10 -40 6
0 10 -13 10 -30 0 -16 -4 -30 -8 -30 -10 0 -32 45 -32 65 0 8 -4 15 -10 15 -5
0 -10 9 -10 20 0 11 5 20 10 20 6 0 10 14 10 30 0 17 4 30 9 30 6 0 9 8 9 18
-1 9 2 27 6 39 4 12 2 24 -4 28 -6 3 -10 -3 -10 -16 0 -12 -3 -20 -6 -17 -3 3
-5 25 -6 48 0 27 -3 37 -9 29 -4 -8 -6 -25 -4 -39 3 -14 2 -18 -2 -10 -12 27
-36 46 -41 32 -4 -14 -42 -16 -42 -2 0 6 9 10 20 10 16 0 20 7 20 36 0 21 4
33 10 29 6 -3 10 -19 10 -36 0 -16 4 -29 9 -29 15 0 20 40 6 54 -8 7 -11 17
-7 21 4 5 1 4 -7 0 -11 -6 -13 -4 -8 9 4 10 3 15 -3 11 -6 -3 -10 0 -10 7 0 8
-5 6 -11 -5 -5 -9 -7 -22 -4 -27 3 -6 -1 -7 -9 -4 -19 7 -19 5 -2 39 15 29 11
59 -7 48 -6 -4 -8 0 -4 10 6 15 -22 57 -38 57 -4 0 -14 -8 -21 -17 -7 -10 -16
-14 -21 -9 -4 5 -2 11 5 13 6 3 9 10 6 15 -4 6 -2 8 4 4 13 -8 26 10 17 24 -5
8 -11 7 -21 -1 -12 -9 -14 -5 -14 24 0 38 -13 54 -33 40 -18 -13 -77 -16 -77
-4 0 6 5 11 11 11 7 0 18 8 26 18 13 16 14 16 8 -4 -3 -14 -1 -21 9 -21 36 0
17 54 -24 70 -10 4 -11 6 -2 6 7 1 10 5 7 11 -4 6 -11 5 -19 -3 -8 -6 -12 -15
-9 -20 2 -4 -3 -14 -11 -23 -13 -13 -18 -13 -29 -2 -8 7 -14 21 -14 31 0 12 4
14 11 7 5 -5 14 -10 20 -10 5 0 6 3 3 7 -4 3 1 12 11 19 16 12 14 15 -16 46
-27 28 -35 31 -51 21 -16 -10 -24 -8 -48 10 -15 12 -30 25 -31 30 -2 4 -15 21
-29 37 -13 16 -22 34 -19 39 3 5 -1 14 -9 21 -8 7 -12 16 -9 21 3 5 -2 9 -11
9 -9 0 -14 -4 -11 -9 3 -5 -10 -8 -29 -8 -37 1 -46 11 -19 21 24 9 31 7 14 -5
-12 -8 -12 -10 -1 -7 23 6 21 48 -1 48 -11 0 -16 -4 -13 -10 3 -5 -1 -10 -9
-10 -9 0 -16 -4 -16 -10 0 -5 -13 -10 -30 -10 -27 0 -30 3 -30 30 0 22 5 30
18 30 47 1 41 17 -18 59 -57 40 -63 42 -90 31 -24 -10 -32 -10 -44 3 -15 15
-66 12 -66 -4 0 -5 -13 -9 -30 -9 -16 0 -30 5 -30 10 0 6 13 10 29 10 20 0 32
6 36 19 3 10 16 22 28 26 21 7 20 8 -7 12 -23 4 -26 7 -15 15 11 8 11 9 -3 4
-10 -3 -25 -3 -34 1 -13 5 -13 8 -2 15 9 7 8 8 -5 4 -10 -3 -23 -6 -28 -6 -5
0 -9 -5 -9 -11 0 -6 6 -9 14 -6 14 5 36 -10 36 -25 0 -4 -7 -8 -15 -8 -8 0
-15 -4 -15 -10 0 -5 -7 -10 -15 -10 -8 0 -15 -4 -15 -10 0 -5 -9 -10 -20 -10
-11 0 -20 5 -20 10 0 6 5 10 11 10 6 0 17 7 26 15 14 14 14 18 -1 34 -14 15
-14 20 -4 25 7 3 4 5 -7 3 -15 -3 -21 2 -22 14 -1 12 3 16 14 12 11 -4 14 -2
9 5 -4 7 -16 12 -27 12 -10 0 -19 5 -19 10 0 6 -5 10 -11 10 -5 0 -7 -4 -4
-10 3 -5 1 -10 -4 -10 -6 0 -11 5 -11 10 0 13 -32 9 -42 -5 -5 -6 -12 -5 -20
3 -9 9 -8 12 7 13 11 1 23 1 28 0 4 0 7 4 7 10 0 6 -10 10 -22 9 -13 -1 -30
-2 -38 -1 -13 1 -13 2 0 11 10 7 -7 10 -57 10 -42 0 -73 -4 -73 -10 0 -5 -13
-10 -30 -10 -16 0 -30 3 -30 6 0 14 31 34 54 34 14 0 28 5 31 10 4 6 -10 10
-35 10 -29 0 -39 4 -34 12 5 8 -3 10 -27 6 -45 -8 -96 1 -77 13 9 6 4 9 -14 9
-16 0 -28 4 -28 8 0 5 -21 10 -47 11 -26 1 -50 6 -54 13 -4 6 -18 8 -35 4 -16
-4 -45 -9 -64 -11 -30 -4 -31 -3 -10 4 24 9 24 9 -7 10 -18 1 -33 -3 -33 -9 0
-17 -17 -11 -22 8 -5 19 -37 26 -77 16 -19 -4 -22 -7 -11 -14 21 -13 5 -23
-17 -12 -11 6 -25 7 -33 2 -7 -5 -18 -3 -25 3 -10 10 -8 13 9 19 15 4 10 6
-18 7 -37 1 -38 0 -23 -16 14 -17 14 -18 -14 -18 -16 0 -29 3 -29 8 0 4 5 7
10 7 6 0 10 5 10 10 0 6 -21 10 -47 10 -31 0 -43 -3 -35 -9 9 -5 -5 -9 -38
-10 -29 0 -58 -6 -66 -12 -7 -5 -28 -9 -46 -7 l-33 4 43 8 c46 9 57 26 17 26
-14 0 -25 -4 -25 -8z"/>
<path d="M2830 2200 l0 -1260 165 0 165 0 0 1260 0 1260 -165 0 -165 0 0
-1260z"/>
<path d="M5810 2836 c0 -8 8 -17 18 -19 9 -3 -3 -5 -28 -5 -34 0 -40 2 -25 8
18 8 17 9 -7 9 -18 1 -28 -4 -28 -13 0 -20 -40 -32 -50 -15 -7 10 -16 10 -50
-1 -43 -14 -38 -30 10 -29 23 0 24 1 5 10 -20 9 -20 9 0 6 11 -1 21 -10 23
-20 3 -13 -3 -17 -27 -17 -17 0 -31 5 -31 10 0 6 -7 10 -16 10 -8 0 -13 -4
-10 -9 6 -10 -33 -24 -77 -27 -16 -1 -34 -10 -41 -20 -7 -9 -18 -14 -23 -11
-6 4 -16 0 -23 -8 -10 -12 -9 -16 4 -21 11 -4 23 1 31 12 14 18 16 18 29 2 15
-21 46 -24 46 -5 0 8 4 7 10 -3 8 -13 10 -12 10 3 0 19 4 20 38 11 27 -8 27
-15 3 -42 -19 -22 -61 -30 -61 -12 0 6 -9 10 -20 10 -11 0 -20 5 -20 10 0 14
-37 12 -43 -2 -3 -10 -9 -10 -26 0 -26 15 -31 15 -55 -3 -20 -15 -20 -15 0
-30 15 -11 16 -14 3 -15 -8 0 -19 4 -25 9 -5 6 -23 -3 -46 -25 -21 -19 -37
-34 -35 -35 1 0 11 -2 21 -4 10 -2 22 -9 26 -16 4 -6 13 -8 19 -5 16 10 -15
39 -31 31 -7 -4 -3 2 10 13 12 11 22 26 22 33 0 10 2 11 13 0 10 -10 8 -14 -6
-23 -17 -9 -17 -11 -1 -22 16 -12 15 -14 -2 -42 -25 -38 -40 -54 -53 -54 -6 0
-11 -4 -11 -10 0 -15 -30 -12 -47 6 -14 14 -14 17 2 32 10 9 15 11 11 4 -9
-15 12 -44 25 -36 5 3 9 15 9 27 0 18 -2 19 -10 7 -8 -13 -10 -13 -10 2 0 9 6
18 13 21 8 3 9 8 1 16 -10 11 -16 6 -89 -78 -14 -16 -15 -22 -5 -19 22 5 25
-41 3 -57 -19 -14 -33 -11 -33 8 0 7 4 6 10 -3 6 -9 10 -10 10 -3 0 19 -17 24
-30 8 -7 -8 -9 -15 -6 -15 4 0 1 -7 -7 -15 -9 -8 -13 -24 -10 -35 7 -26 23
-26 23 0 0 11 5 20 10 20 14 0 12 -38 -2 -42 -9 -3 -7 -10 6 -24 14 -13 21
-15 24 -6 6 19 22 14 22 -8 0 -11 -4 -20 -10 -20 -5 0 -10 -9 -10 -20 0 -11
-4 -20 -10 -20 -15 0 -12 -58 3 -63 7 -2 8 -8 3 -13 -5 -5 -11 -4 -13 4 -5 13
-43 17 -43 4 0 -4 -9 -8 -20 -8 -11 0 -20 6 -20 13 0 7 -5 13 -11 13 -7 0 -9
10 -5 28 7 26 6 26 -8 7 -8 -12 -14 -32 -15 -45 0 -14 -5 -58 -12 -99 -8 -57
-8 -75 1 -81 9 -6 10 -20 1 -59 -13 -60 -13 -100 -1 -61 l8 25 1 -27 c1 -15
-3 -30 -9 -33 -5 -3 -10 -12 -10 -18 0 -7 4 -6 10 3 6 10 10 11 10 3 0 -8 13
-13 29 -13 31 0 41 -15 40 -58 0 -15 -3 -21 -6 -14 -2 6 -11 12 -18 12 -8 0
-17 9 -20 20 -3 11 -11 20 -16 20 -15 0 -10 -65 7 -86 15 -18 15 -18 5 3 -16
31 -13 41 4 19 17 -23 20 -53 4 -58 -7 -2 -5 -13 4 -31 12 -23 16 -25 21 -11
4 10 2 21 -5 25 -8 5 -8 12 0 25 10 18 10 18 11 -3 0 -13 5 -23 10 -23 6 0 10
14 10 30 0 23 5 30 19 30 10 0 22 -7 25 -16 8 -21 8 -24 -4 -24 -20 0 -47 -33
-42 -52 3 -12 0 -18 -9 -16 -16 3 -14 -31 3 -47 7 -7 9 -6 5 1 -6 11 23 54 37
54 8 0 -5 -53 -15 -60 -12 -8 1 -53 22 -80 16 -21 18 -22 13 -5 -5 19 -5 19 9
3 15 -19 57 -25 57 -8 0 19 39 10 45 -10 3 -11 11 -20 16 -20 5 0 9 -5 9 -11
0 -7 -8 -9 -22 -4 -13 4 -37 8 -53 9 -17 1 -37 6 -45 11 -13 7 -13 6 -2 -7 8
-10 20 -14 29 -11 13 5 15 2 10 -11 -5 -11 -3 -15 5 -10 8 5 9 2 5 -9 -4 -11
-1 -17 8 -17 7 0 17 -5 21 -12 5 -7 3 -8 -7 -3 -12 7 -12 6 -1 -7 8 -9 20 -14
28 -11 11 4 15 0 12 -13 -2 -14 2 -18 16 -16 10 2 15 -1 12 -6 -9 -15 39 -53
58 -46 13 5 14 9 5 14 -9 6 -8 12 4 25 10 9 17 21 17 26 0 5 11 9 24 9 13 0
27 6 30 13 3 6 3 2 0 -10 -4 -16 -1 -23 10 -23 8 0 18 -9 21 -20 3 -11 11 -20
16 -20 5 0 9 -13 9 -30 0 -23 -4 -30 -20 -30 -22 0 -27 16 -8 22 16 6 -35 58
-57 58 -18 0 -19 -5 -3 -33 10 -19 9 -20 -4 -9 -16 13 -48 7 -48 -10 0 -5 4
-7 9 -3 5 3 13 0 16 -6 4 -5 14 -8 22 -5 8 3 11 2 8 -4 -7 -12 34 -50 55 -50
9 0 21 5 28 12 9 9 15 9 25 -1 10 -11 9 -13 -5 -8 -9 3 -18 1 -21 -6 -5 -15
53 -46 72 -39 9 3 12 1 7 -6 -5 -9 7 -12 41 -13 39 -1 43 -3 23 -9 -20 -6 -15
-8 24 -9 l50 -1 -22 20 c-13 12 -35 20 -57 20 -19 0 -35 5 -35 10 0 6 23 10
50 10 28 0 50 5 50 10 0 6 21 10 46 10 41 0 45 -2 39 -20 -4 -11 -2 -20 4 -20
6 0 11 -6 11 -14 0 -11 -10 -14 -42 -11 -26 3 -37 1 -29 -4 10 -6 6 -12 -15
-20 -27 -10 -27 -11 -3 -6 14 2 35 -2 46 -10 16 -11 28 -13 48 -5 14 5 37 10
50 10 13 0 25 5 27 12 3 7 9 8 19 3 10 -7 4 -12 -26 -21 -36 -11 -27 -12 80
-11 66 1 96 3 68 5 -29 1 -65 10 -80 17 -28 15 -27 15 27 16 50 2 52 2 20 9
l-35 7 37 2 c51 2 72 -7 57 -25 -10 -12 -1 -14 52 -14 44 0 59 3 49 10 -12 7
-10 11 10 19 24 9 24 10 3 10 -28 1 -31 21 -3 21 11 0 20 5 20 10 0 6 21 10
46 10 41 0 45 2 39 20 -6 18 -2 20 33 20 22 0 42 -5 44 -10 2 -6 13 -12 25
-13 12 0 19 -5 17 -9 -3 -4 0 -8 6 -8 15 0 42 27 32 33 -4 2 -1 2 7 0 7 -2 20
2 27 8 8 6 14 8 14 5 0 -4 20 7 45 24 25 17 43 35 40 41 -4 5 -1 9 5 9 6 0 20
9 32 20 12 11 17 20 11 20 -6 0 -16 -6 -23 -14 -6 -8 -18 -12 -26 -9 -8 3 -14
-1 -14 -11 0 -10 -6 -14 -17 -10 -15 5 -15 3 2 -11 20 -16 19 -16 -6 -10 -18
4 -30 1 -40 -11 -13 -15 -12 -16 11 -10 21 6 22 5 7 -4 -9 -6 -21 -9 -26 -5
-14 8 -9 44 5 38 7 -2 15 5 19 16 3 12 13 21 22 21 10 0 13 6 9 16 -3 9 -6 18
-6 20 0 2 -9 4 -20 4 -11 0 -20 5 -20 11 0 6 15 9 38 7 30 -2 38 -7 43 -28 7
-24 7 -24 14 -4 4 12 18 27 32 33 21 10 24 9 20 -2 -3 -8 1 -14 8 -14 8 0 14
3 13 6 0 3 0 15 2 26 l1 20 9 -20 c7 -19 8 -18 15 6 5 21 11 26 28 22 18 -4
19 -3 7 6 -13 10 -13 12 0 22 12 8 9 10 -12 6 -29 -4 -32 0 -22 27 9 24 39 19
52 -9 6 -14 18 -25 27 -25 8 0 18 -12 21 -26 7 -29 -9 -54 -22 -33 -4 7 -3 14
4 17 18 6 15 16 -9 30 -19 12 -20 11 -14 -25 4 -28 3 -33 -4 -18 -11 22 -15 6
-5 -19 7 -17 44 -22 44 -6 0 6 35 10 85 10 l85 0 0 554 c0 305 3 561 6 570 5
14 -6 16 -80 16 -47 0 -86 -3 -86 -7 0 -5 -11 -9 -25 -9 -14 -1 -23 2 -20 6 3
4 -3 14 -12 21 -15 12 -16 12 -10 -3 4 -13 1 -18 -9 -18 -10 0 -14 6 -11 14 4
11 1 13 -10 9 -10 -4 -14 -2 -10 4 4 6 4 19 0 29 -6 16 -7 16 -14 -2 -3 -10
-2 -24 3 -31 11 -13 3 -33 -14 -33 -5 0 -8 6 -5 14 3 8 -1 20 -9 26 -8 7 -13
20 -13 29 1 13 2 13 6 -1 8 -30 24 -20 20 11 -7 43 -16 54 -32 41 -19 -16 -50
17 -34 36 10 12 9 13 -5 8 -9 -3 -16 -13 -16 -22 0 -8 -3 -13 -6 -9 -4 3 -4
12 -2 19 7 18 5 34 -5 30 -5 -1 -6 2 -3 7 12 19 -10 19 -34 0 l-25 -20 25 6
c22 5 23 4 7 -5 -21 -13 -52 -5 -42 10 4 6 1 17 -5 25 -6 8 -9 19 -6 24 4 5
-3 16 -14 24 -11 7 -17 17 -13 21 4 4 -1 4 -10 0 -12 -4 -17 -2 -15 7 2 8 -7
15 -19 17 -13 2 -23 8 -23 13 0 5 -12 9 -26 9 -16 0 -23 4 -18 11 4 8 -1 9
-16 4 -14 -5 -20 -3 -16 3 4 6 -2 8 -16 4 -16 -4 -19 -2 -13 8 5 8 4 11 -3 6
-14 -8 -64 3 -57 13 3 6 -36 7 -79 2 -4 -1 -6 -8 -2 -16 3 -8 1 -15 -3 -15 -5
0 -12 7 -15 16 -4 11 -13 14 -27 11 -13 -3 -19 -1 -16 6 2 7 16 11 31 9 14 -1
26 2 26 8 0 5 -18 10 -40 10 -22 0 -40 -4 -40 -10 0 -15 -57 -12 -64 3 -5 10
-7 10 -12 0 -7 -16 -144 -18 -144 -3 0 6 -7 10 -15 10 -8 0 -15 -6 -15 -14z
m220 -555 c0 -5 -7 -16 -15 -25 -21 -21 -19 -46 4 -46 11 0 23 -5 26 -10 5 -8
11 -7 21 1 18 15 18 29 -1 29 -8 0 -15 5 -15 10 0 6 4 10 8 10 5 0 14 10 20
23 6 12 11 16 11 10 1 -7 10 -13 21 -13 11 0 20 -4 20 -10 0 -5 -8 -10 -19
-10 -12 0 -20 -9 -23 -25 -3 -14 -1 -25 3 -25 5 0 6 -6 3 -14 -3 -9 3 -20 15
-28 12 -7 21 -19 21 -27 0 -11 3 -11 18 0 15 13 16 12 3 -3 -10 -14 -11 -21
-2 -32 12 -14 13 -148 1 -141 -3 2 -16 -12 -30 -31 -14 -18 -29 -34 -33 -34
-29 -1 -39 -51 -23 -115 5 -20 10 -25 15 -16 6 10 10 9 15 -5 9 -24 -1 -30
-26 -15 -18 11 -23 10 -40 -6 -18 -19 -18 -20 -2 -34 16 -12 17 -12 11 4 -4
11 -3 16 3 12 15 -10 12 -22 -12 -45 -20 -18 -20 -21 -5 -33 11 -8 15 -20 11
-35 -6 -20 -11 -22 -43 -16 -20 4 -39 11 -42 17 -4 6 -13 5 -25 -2 -15 -8 -16
-11 -4 -12 8 -1 18 -1 22 0 4 0 10 -8 13 -19 7 -23 21 -26 28 -7 2 6 7 9 11 5
4 -3 2 -16 -4 -28 -10 -18 -9 -24 1 -31 7 -4 10 -12 5 -16 -5 -4 -11 -2 -13 5
-3 6 -13 12 -24 12 -11 0 -19 7 -19 16 0 24 -24 42 -60 46 -19 2 -36 9 -38 17
-3 10 1 12 17 8 11 -3 21 -1 21 4 0 5 8 9 18 9 10 0 21 2 24 6 9 8 -45 60 -58
56 -7 -2 -15 1 -19 7 -3 6 1 11 9 11 9 0 16 6 16 14 0 8 3 22 7 32 6 16 5 17
-9 4 -9 -8 -14 -18 -11 -22 2 -5 -1 -8 -7 -8 -8 0 -9 7 -5 18 15 34 17 62 6
62 -6 0 -11 14 -11 30 0 40 17 38 29 -2 l9 -33 1 43 c1 37 -4 49 -30 73 -17
16 -35 29 -41 29 -5 0 -6 5 -2 12 4 6 3 8 -4 4 -6 -3 -13 -2 -17 4 -7 12 -25
4 -25 -11 0 -6 5 -7 11 -3 7 4 10 1 7 -7 -3 -9 -22 -15 -51 -17 -41 -3 -47 -1
-47 17 0 10 6 22 13 25 10 5 10 7 0 12 -8 3 -13 25 -13 55 0 42 3 49 20 49 11
0 20 -4 20 -9 0 -16 49 -19 54 -4 10 24 7 39 -4 23 -7 -11 -9 -6 -7 17 2 32
17 48 17 19 0 -8 5 -18 11 -22 8 -5 10 2 6 22 -6 33 16 66 39 57 18 -7 49 23
31 30 -9 4 -9 6 0 6 6 1 15 -3 18 -9 3 -5 12 -10 18 -10 7 0 6 4 -3 10 -11 7
-2 10 33 10 26 0 47 5 47 10 0 6 -11 10 -25 10 -14 0 -25 5 -25 10 0 6 16 10
35 10 28 0 35 4 35 20 0 11 7 20 15 20 8 0 15 -4 15 -9z"/>
<path d="M810 2804 c-323 -37 -549 -170 -674 -398 -40 -71 -81 -184 -102 -276
-23 -102 -29 -395 -10 -510 49 -301 195 -509 441 -629 158 -77 326 -106 519
-90 126 11 203 31 315 86 79 37 108 59 181 131 87 87 157 188 162 233 l3 24
-162 2 -162 2 -36 -49 c-61 -83 -154 -144 -258 -169 -71 -17 -214 -15 -288 4
-180 47 -313 189 -364 390 -28 109 -39 283 -26 412 21 216 65 329 170 434 231
231 642 197 781 -64 l25 -47 169 0 168 0 -6 26 c-14 54 -64 151 -111 213 -127
167 -332 262 -590 274 -60 2 -126 3 -145 1z"/>
<path d="M12058 2799 c-305 -32 -561 -201 -686 -454 -73 -149 -102 -290 -102
-505 0 -241 44 -417 140 -563 149 -226 380 -354 677 -375 l102 -7 6 40 c4 22
5 85 3 140 l-3 99 -110 13 c-167 18 -247 53 -327 142 -78 87 -140 250 -150
394 l-3 47 729 0 728 0 -5 162 c-5 184 -23 271 -83 397 -126 268 -367 436
-677 470 -106 12 -126 12 -239 0z m267 -261 c130 -28 274 -137 328 -248 29
-60 67 -197 67 -242 l0 -28 -544 0 c-329 0 -547 4 -551 9 -10 17 26 165 56
228 54 114 175 222 297 265 103 36 226 42 347 16z"/>
<path d="M8560 2763 c0 -8 150 -379 528 -1308 l208 -510 156 -3 c119 -2 157 1
161 10 2 7 72 180 155 383 82 204 212 523 287 710 75 187 170 422 211 522 41
100 74 187 74 193 0 7 -51 10 -164 10 l-164 -2 -11 -26 c-5 -15 -50 -130 -100
-257 -49 -126 -145 -374 -214 -550 -127 -327 -210 -549 -222 -598 -4 -15 -10
-27 -14 -27 -4 0 -22 46 -40 103 -41 125 -147 407 -388 1032 -47 121 -94 244
-105 273 l-19 52 -170 0 c-93 0 -169 -3 -169 -7z"/>
<path d="M6789 2536 c-2 -6 -5 -20 -8 -33 -2 -5 -6 1 -11 12 -8 18 -9 17 -9
-8 -1 -16 3 -26 9 -22 6 3 10 1 10 -4 0 -6 5 -11 10 -11 6 0 10 9 10 20 0 18
7 20 76 20 52 0 80 -4 90 -14 12 -12 14 -105 14 -590 0 -387 3 -576 10 -576 7
0 10 195 8 603 l-3 602 -102 3 c-57 2 -104 1 -104 -2z"/>
</g>
</svg>
