<?xml version="1.0" standalone="no"?>
<!DOCTYPE svg PUBLIC "-//W3C//DTD SVG 20010904//EN" "http://www.w3.org/TR/2001/REC-SVG-20010904/DTD/svg10.dtd">
<svg version="1.0" xmlns="http://www.w3.org/2000/svg" width="1306.000000pt" height="394.000000pt" viewBox="0 0 1306.000000 394.000000" preserveAspectRatio="xMidYMid meet">
<g transform="translate(0.000000,394.000000) scale(0.100000,-0.100000)" fill="#000000" stroke="none">
<path fill="#fe6601" d="M5775 3930 c-11 -5 -39 -9 -62 -9 -24 -1 -62 -5 -85 -11 -143 -31
-179 -40 -233 -54 -33 -9 -69 -20 -80 -25 -11 -4 -38 -14 -60 -21 -22 -7 -58
-21 -80 -30 -22 -10 -55 -24 -72 -31 -18 -8 -33 -17 -33 -21 0 -5 -6 -8 -12
-8 -17 0 -142 -62 -146 -72 -2 -4 -9 -8 -16 -8 -7 0 -21 -8 -32 -17 -10 -10
-31 -24 -46 -32 -15 -8 -37 -22 -47 -33 -11 -10 -26 -18 -33 -18 -8 0 -20 -9
-28 -20 -8 -11 -18 -20 -22 -20 -10 0 -42 -26 -95 -77 -24 -24 -46 -43 -49
-43 -9 0 -166 -162 -204 -210 -19 -25 -43 -54 -52 -64 -10 -11 -18 -25 -18
-31 0 -7 -13 -26 -30 -43 -16 -18 -30 -36 -30 -41 0 -5 -6 -16 -14 -24 -8 -7
-29 -42 -47 -77 -19 -34 -42 -77 -51 -94 -9 -17 -29 -60 -44 -96 -15 -36 -33
-79 -40 -97 -8 -17 -17 -46 -20 -65 -4 -18 -10 -37 -14 -43 -9 -12 -45 -172
-61 -270 -15 -95 -16 -431 -1 -530 24 -155 82 -365 131 -470 15 -33 36 -79 46
-102 10 -24 22 -43 27 -43 4 0 8 -9 8 -20 0 -11 4 -20 8 -20 5 0 19 -23 32
-50 13 -28 27 -50 31 -50 4 0 10 -8 14 -19 3 -10 13 -28 23 -39 9 -11 24 -30
32 -42 52 -76 91 -121 210 -240 118 -117 189 -180 205 -180 6 0 17 -9 25 -20
8 -11 20 -20 27 -20 7 0 13 -4 13 -10 0 -5 7 -10 15 -10 8 0 15 -4 15 -10 0
-5 7 -10 15 -10 8 0 15 -4 15 -10 0 -5 7 -10 15 -10 8 0 15 -4 15 -8 0 -5 16
-14 35 -22 19 -8 35 -17 35 -22 0 -4 7 -8 15 -8 8 0 15 -3 15 -8 0 -8 73 -42
90 -42 6 0 10 -4 10 -8 0 -5 19 -16 43 -26 23 -10 56 -24 72 -31 17 -7 57 -23
90 -35 129 -46 179 -60 348 -99 26 -6 120 -11 210 -11 l162 0 -1 138 -2 137
-98 12 c-117 15 -214 31 -269 45 -120 29 -187 49 -199 60 -6 4 -20 8 -33 8
-13 0 -23 5 -23 10 0 6 -8 10 -17 10 -10 0 -45 14 -78 30 -33 17 -65 30 -72
30 -7 0 -13 5 -13 10 0 6 -9 10 -20 10 -11 0 -20 4 -20 8 0 5 -21 20 -47 33
-27 13 -50 26 -53 30 -3 3 -27 21 -55 39 -27 19 -51 37 -53 42 -2 4 -8 8 -14
8 -5 0 -15 6 -22 13 -8 6 -46 41 -87 77 -40 36 -82 76 -93 89 -12 13 -30 33
-41 45 -11 12 -38 44 -60 71 -22 28 -43 52 -47 53 -5 2 -8 8 -8 12 0 5 -25 46
-55 90 -30 44 -55 87 -55 95 0 7 -3 15 -7 17 -20 8 -81 159 -131 323 -90 295
-67 691 59 999 16 39 29 76 29 83 0 6 3 13 8 15 4 2 25 37 47 78 38 74 114
190 144 222 9 9 27 30 40 48 14 18 36 45 50 60 14 15 33 37 41 49 8 12 18 21
23 21 4 0 23 15 41 33 55 52 109 98 139 115 15 9 27 20 27 24 0 4 5 8 10 8 6
0 20 9 32 20 12 11 28 20 35 20 7 0 13 5 13 10 0 6 6 10 14 10 8 0 16 3 18 8
2 4 26 18 53 32 28 14 52 27 55 30 3 3 48 23 100 44 52 21 109 44 125 51 52
22 168 53 320 85 22 5 118 14 213 21 135 10 185 10 230 1 32 -7 75 -12 96 -12
20 0 58 -5 84 -10 26 -6 70 -15 97 -21 71 -14 127 -29 147 -40 10 -5 29 -9 43
-9 14 0 25 -4 25 -10 0 -5 9 -10 20 -10 11 0 28 -4 38 -9 9 -5 35 -17 57 -26
66 -28 150 -69 155 -75 3 -4 20 -13 38 -21 17 -8 32 -17 32 -21 0 -5 5 -8 11
-8 5 0 37 -18 69 -40 32 -22 61 -40 63 -40 5 0 63 -52 134 -117 24 -24 49 -43
54 -43 5 0 9 -3 9 -7 0 -5 28 -38 63 -74 34 -37 73 -82 87 -100 54 -74 120
-177 120 -188 0 -6 4 -11 8 -11 9 0 71 -130 98 -205 9 -27 21 -54 25 -60 18
-25 70 -273 80 -388 l12 -127 164 0 163 0 0 68 c0 69 -23 262 -39 329 -18 79
-51 190 -71 243 -12 30 -28 72 -35 93 -19 50 -86 178 -102 195 -7 7 -13 18
-13 24 0 15 -110 178 -121 178 -5 0 -9 6 -9 13 0 6 -14 28 -30 47 -17 19 -45
52 -63 74 -29 34 -65 71 -160 161 -36 34 -78 68 -127 105 -18 14 -51 40 -73
58 -21 17 -45 32 -53 32 -8 0 -14 5 -14 10 0 6 -7 10 -15 10 -8 0 -15 4 -15 8
0 5 -16 14 -35 22 -19 8 -35 17 -35 22 0 4 -9 8 -20 8 -11 0 -20 4 -20 8 0 10
-145 83 -205 103 -22 8 -42 16 -45 19 -8 8 -75 30 -93 30 -9 0 -17 5 -17 10 0
6 -13 10 -29 10 -17 0 -33 5 -36 10 -3 6 -21 10 -39 10 -17 0 -36 4 -42 8 -11
11 -142 38 -295 62 -79 12 -496 12 -524 0z"/>
<path fill="#fe6601" d="M5785 2845 c-33 -8 -73 -17 -90 -20 -30 -6 -63 -19 -97 -36 -10 -5
-25 -9 -33 -9 -8 0 -20 -9 -27 -20 -7 -11 -20 -20 -28 -20 -21 0 -70 -23 -70
-32 0 -5 -6 -8 -12 -8 -31 -1 -214 -175 -264 -250 -54 -84 -65 -105 -107 -205
-58 -138 -64 -471 -11 -573 8 -15 14 -34 14 -43 0 -20 50 -124 85 -175 34 -51
102 -130 139 -163 16 -14 38 -36 50 -47 28 -29 140 -104 155 -104 6 0 11 -4
11 -10 0 -5 9 -10 20 -10 11 0 20 -4 20 -10 0 -5 7 -10 15 -10 8 0 24 -4 35
-10 11 -5 29 -14 40 -20 10 -5 61 -19 112 -30 105 -23 330 -28 420 -9 79 16
187 50 194 60 3 5 14 9 25 9 10 0 19 5 19 10 0 6 9 10 19 10 11 0 21 3 23 8 2
4 23 17 48 30 25 12 65 40 89 62 24 22 46 40 48 40 8 0 83 82 83 91 0 5 5 9
10 9 6 0 10 -27 10 -60 l0 -60 139 0 c117 0 140 2 145 16 8 20 8 1308 0 1328
-5 14 -28 16 -145 16 l-139 0 0 -37 c0 -49 -15 -75 -25 -44 -3 11 -10 21 -15
21 -5 0 -12 9 -15 20 -3 11 -12 20 -18 20 -7 0 -22 13 -35 29 -63 80 -244 184
-382 221 -108 28 -360 37 -455 15z m250 -655 c3 -5 13 -10 21 -10 34 0 94 -89
94 -140 0 -46 -22 -94 -59 -127 -19 -18 -38 -33 -42 -33 -4 0 -9 -29 -11 -65
-3 -50 -9 -68 -23 -79 -18 -13 -18 -17 -6 -37 10 -17 10 -24 2 -27 -6 -2 -11
-11 -11 -20 0 -9 -7 -25 -15 -36 -13 -17 -15 -17 -47 13 -18 17 -36 31 -40 31
-5 0 -8 47 -8 104 0 109 -5 136 -24 136 -17 0 -54 61 -64 107 -16 71 13 128
88 171 37 22 134 30 145 12z"/>
<path fill="#575757" d="M2820 2200 l0 -1270 175 0 175 0 0 1270 0 1270 -175 0 -175 0 0
-1270z"/>
<path fill="#575757" d="M825 2813 c-133 -8 -257 -40 -377 -96 -197 -92 -334 -262 -402 -499
-38 -133 -49 -241 -43 -433 4 -139 9 -188 31 -270 77 -300 272 -504 563 -591
76 -23 112 -27 258 -31 146 -4 183 -2 262 16 167 37 296 110 410 235 63 68
137 194 131 222 -3 14 -26 16 -178 16 -172 0 -175 -1 -189 -24 -25 -39 -104
-112 -153 -140 -128 -76 -348 -79 -487 -9 -62 32 -146 107 -185 164 -135 205
-152 638 -35 884 162 340 674 392 849 85 l35 -61 178 -1 c142 0 177 3 177 13
0 22 -36 119 -60 162 -100 179 -271 298 -487 339 -83 16 -216 24 -298 19z"/>
<path fill="#575757" d="M12065 2810 c-123 -10 -213 -34 -320 -84 -256 -120 -421 -349 -470
-651 -20 -119 -19 -367 0 -480 19 -107 73 -250 126 -331 43 -67 158 -183 229
-231 126 -86 325 -143 496 -143 l74 0 0 149 0 148 -89 7 c-194 14 -304 74
-393 211 -21 32 -50 95 -63 140 -24 79 -46 211 -37 220 3 3 329 5 724 5 l718
0 0 168 c0 137 -4 183 -20 248 -74 284 -280 501 -558 588 -69 22 -274 50 -317
44 -5 0 -50 -4 -100 -8z m219 -275 c141 -27 267 -107 336 -215 34 -54 74 -165
85 -242 l7 -48 -541 0 -542 0 6 38 c23 135 81 249 171 333 84 77 176 121 294
138 83 13 102 12 184 -4z"/>
<path fill="#575757" d="M8567 2772 c-13 -3 -18 -10 -14 -25 2 -12 109 -278 237 -592 251
-616 263 -646 403 -990 l93 -230 165 -3 166 -2 86 212 c47 117 212 525 367
907 154 382 279 701 278 708 -2 12 -37 15 -171 16 -103 1 -172 -2 -176 -8 -7
-9 -75 -181 -230 -580 -27 -71 -95 -245 -149 -385 -55 -140 -114 -295 -131
-345 -17 -49 -34 -97 -37 -104 -3 -8 -24 43 -48 115 -37 109 -217 586 -339
899 -19 50 -61 158 -92 240 -31 83 -60 153 -64 156 -7 8 -316 17 -344 11z"/>
</g>
</svg>
